<?xml version="1.0" encoding="utf-8"?>
<svg viewBox="89.123 89.1236 321.7533 321.7533" xmlns="http://www.w3.org/2000/svg">
  <path d="M 228.713 301.33 C 218.453 311.586 204.751 317.235 190.132 317.235 C 175.512 317.235 161.81 311.586 151.55 301.33 C 141.261 291.037 135.595 277.338 135.595 262.749 C 135.595 248.159 141.261 234.454 151.55 224.164 L 192.956 182.762 L 193.943 183.747 L 270.116 259.928 L 228.713 301.33 Z" fill="#d85140" p-id="2049" data-spm-anchor-id="a313x.search_index.0.i7.10503a8132A4c6" class="" style="transform-origin: 202.856px 249.998px;" transform="matrix(0.707107007504, 0.707107007504, -0.707107007504, 0.707107007504, -0.0000098789, -0.000018810059)"/>
  <path d="M 348.437 275.879 L 307.033 317.275 L 306.046 316.29 L 229.87 240.111 L 271.266 198.707 C 292.548 177.442 327.159 177.437 348.435 198.707 C 369.707 219.985 369.707 254.599 348.437 275.879 Z" fill="#f1bf42" p-id="2050" data-spm-anchor-id="a313x.search_index.0.i9.10503a8132A4c6" class="" style="transform-origin: 297.13px 250.016px;" transform="matrix(0.707107007504, 0.707107007504, -0.707107007504, 0.707107007504, 0.000009286106, -0.000017662709)"/>
  <path d="M 343.96 156.064 C 317.553 129.65 274.569 129.65 248.162 156.064 L 202.264 201.958 L 156.043 248.186 C 129.629 274.596 129.629 317.567 156.043 343.978 C 168.788 356.724 185.8 363.747 203.939 363.747 C 222.082 363.747 239.093 356.729 251.838 343.978 L 343.96 251.859 C 370.369 225.448 370.369 182.471 343.96 156.064 Z M 242.52 334.666 C 232.26 344.922 218.558 350.571 203.939 350.571 C 189.319 350.571 175.617 344.922 165.357 334.666 C 155.068 324.373 149.402 310.674 149.402 296.085 C 149.402 281.495 155.068 267.79 165.357 257.5 L 206.763 216.098 L 207.75 217.083 L 283.923 293.264 L 242.52 334.666 Z M 334.644 242.548 L 293.24 283.944 L 292.253 282.959 L 216.077 206.78 L 257.473 165.376 C 278.755 144.111 313.366 144.106 334.642 165.376 C 355.914 186.654 355.914 221.268 334.644 242.548 Z" p-id="2051" data-spm-anchor-id="a313x.search_index.0.i10.10503a8132A4c6" class="" fill="#5383ec" style="transform-origin: 250px 250px;" transform="matrix(0.707107007504, 0.707107007504, -0.707107007504, 0.707107007504, 0.000009069804, 0.000008513061)"/>
  <path d="M 314 228.206 C 322.061 220.14 334.541 217.808 345.058 222.396 C 346.667 223.105 348.462 223.132 350.097 222.495 C 351.732 221.853 353.026 220.608 353.728 218.999 C 355.184 215.672 353.659 211.783 350.328 210.324 C 345.064 208.026 339.458 206.909 333.89 206.909 C 323.129 206.909 312.5 211.071 304.683 218.888 L 290.792 232.779 C 288.223 235.348 288.223 239.523 290.792 242.09 C 293.27 244.587 297.619 244.584 300.103 242.093 L 314 228.206 Z" fill="#5383ec" p-id="2052" data-spm-anchor-id="a313x.search_index.0.i12.10503a8132A4c6" class="selected" style="transform-origin: 321.573px 225.435px;" transform="matrix(0.707107007504, 0.707107007504, -0.707107007504, 0.707107007504, 0.000002335119, 0.000006331243)"/>
  <path d="M 266.759 206.626 C 264.067 205.962 261.227 207.152 260.403 209.313 L 229.894 288.269 C 229.067 290.429 230.551 292.71 233.24 293.374 C 235.932 294.037 238.77 292.847 239.597 290.684 L 270.107 211.731 C 270.931 209.57 269.45 207.286 266.759 206.626 Z M 281.886 226.79 C 279.958 228.439 280.063 231.027 282.12 232.557 L 305.277 250 L 282.12 267.442 C 280.063 268.988 279.958 271.576 281.886 273.209 C 283.813 274.842 287.034 274.943 289.068 273.396 L 316.188 252.977 C 317.204 252.211 317.799 251.122 317.799 250 C 317.799 248.878 317.227 247.787 316.188 247.022 L 289.068 226.602 C 287.013 225.053 283.793 225.139 281.886 226.79 Z M 218.113 226.79 C 216.185 225.139 212.965 225.053 210.93 226.602 L 183.813 247.022 C 182.772 247.787 182.201 248.878 182.201 250 C 182.201 251.122 182.772 252.211 183.813 252.977 L 210.93 273.396 C 212.987 274.943 216.207 274.859 218.113 273.209 C 220.02 271.56 219.934 268.972 217.879 267.442 L 194.722 250 L 217.879 232.557 C 219.934 231.01 220.042 228.422 218.113 226.79 Z" style="fill: rgb(255, 255, 255);"/>
</svg>